<?xml version="1.0" encoding="utf-8"?>
<!-- Generator: Adobe Illustrator 21.1.0, SVG Export Plug-In . SVG Version: 6.00 Build 0)  -->
<svg version="1.1" id="Layer_1" xmlns="http://www.w3.org/2000/svg" xmlns:xlink="http://www.w3.org/1999/xlink" x="0px" y="0px"
	 viewBox="0 0 497.4 162.2" style="enable-background:new 0 0 497.4 162.2;" xml:space="preserve">
<style type="text/css">
	.st0{fill:#6F6F6F;}
	.st1{fill:#426C9E;}
	.st2{fill:#FEF8F4;}
	.st3{fill:#FBE3CE;}
	.st4{fill:#F19548;}
</style>
<g>
	<g>
		<path class="st0" d="M1.6,152.9L1.6,152.9l7.6-7.2h2.3L3.4,153l8.5,8.8H9.6l-8-8.5l0,0v8.5H0v-16h1.6V152.9z"/>
		<path class="st0" d="M33.4,159.4L33.4,159.4v-13.6H35v16h-2L23.7,148l0,0v13.8h-1.6v-16h2L33.4,159.4z"/>
		<path class="st0" d="M54.7,162.1c-4.8,0-8.3-3.6-8.3-8.4c0-4.9,3.6-8.4,8.3-8.4c4.8,0,8.3,3.6,8.3,8.4
			C63.1,158.6,59.5,162.1,54.7,162.1z M54.7,146.7c-4.1,0-6.6,3.3-6.6,7s2.5,7,6.6,7s6.6-3.2,6.6-7C61.4,150,58.9,146.7,54.7,146.7z
			"/>
		<path class="st0" d="M78.3,159.5L78.3,159.5l4-13.8h1.9l4,13.8l0,0l3.9-13.8h1.7l-4.7,16h-1.9l-4-13.8l0,0l-4,13.8h-1.9l-4.7-16
			h1.7L78.3,159.5z"/>
		<path class="st0" d="M105.9,160.3h7.5v1.4h-9.1v-16h1.6V160.3z"/>
		<path class="st0" d="M125.4,160.3h8.6v1.4h-10.2v-16h9.9v1.4h-8.3v5.5h7.8v1.4h-7.8V160.3z"/>
		<path class="st0" d="M145.1,145.7h5.3c4,0,8.4,2.7,8.4,8s-4.4,8-8.4,8h-5.3V145.7z M146.7,160.3h3.2c4.8,0,7.1-3.3,7.1-6.6
			s-2.3-6.6-7.1-6.6h-3.2V160.3z"/>
		<path class="st0" d="M182.3,148.6c-1.1-1.2-2.6-1.9-4.6-1.9c-4.1,0-6.7,3.3-6.7,7s2.5,7,6.7,7c1.8,0,3.4-0.4,4.3-1v-4.9h-3.7v-1.4
			h5.4v7.2c-1.7,1-3.8,1.6-6,1.6c-4.8,0-8.3-3.6-8.3-8.4c0-4.9,3.6-8.4,8.3-8.4c2.5,0,4.4,0.8,5.8,2.1L182.3,148.6z"/>
		<path class="st0" d="M197.3,160.3h8.6v1.4h-10.2v-16h9.9v1.4h-8.3v5.5h7.8v1.4h-7.8V160.3z"/>
		<path class="st0" d="M235.2,161.7h-1.6v-14.6h-5.4v-1.4h12.4v1.4h-5.4V161.7z"/>
		<path class="st0" d="M252.5,161.7h-1.6v-16h4.7c3.2,0,5.5,1.2,5.5,4.3c0,2.4-1.8,3.9-4.1,4.1l4.7,7.6h-2l-4.4-7.5h-2.7v7.5H252.5z
			 M252.5,152.8h2.8c2.6,0,4.1-1,4.1-2.9c0-2.1-1.6-2.9-4-2.9h-2.9L252.5,152.8L252.5,152.8z"/>
		<path class="st0" d="M272.2,161.7h-1.8l6.9-16h1.6l6.9,16H284l-1.8-4.2h-8.3L272.2,161.7z M274.5,156h7.1l-3.5-8.5L274.5,156z"/>
		<path class="st0" d="M307.4,159.4L307.4,159.4v-13.6h1.6v16h-2l-9.3-13.8l0,0v13.8h-1.6v-16h2L307.4,159.4z"/>
		<path class="st0" d="M329,148.3c-0.7-1-1.8-1.6-3.3-1.6c-1.6,0-3.4,1-3.4,3s1.7,2.6,3.5,3.1c2.3,0.7,4.8,1.5,4.8,4.7
			s-2.7,4.6-5.2,4.6c-1.9,0-3.9-0.8-5-2.4l1.4-1c0.7,1.1,2,2,3.7,2s3.6-1,3.6-3.1c0-2.2-1.9-2.8-3.9-3.4c-2.1-0.7-4.3-1.6-4.3-4.5
			c0-3.1,2.8-4.4,5.1-4.4c2.1,0,3.8,0.9,4.5,1.9L329,148.3z"/>
		<path class="st0" d="M343.6,161.7H342v-16h9.7v1.4h-8v5.6h7.5v1.4h-7.6V161.7z"/>
		<path class="st0" d="M364.2,160.3h8.6v1.4h-10.2v-16h9.9v1.4h-8.3v5.5h7.8v1.4h-7.8L364.2,160.3L364.2,160.3z"/>
		<path class="st0" d="M385.5,161.7h-1.6v-16h4.7c3.2,0,5.5,1.2,5.5,4.3c0,2.4-1.8,3.9-4.1,4.1l4.7,7.6h-2l-4.4-7.5h-2.7v7.5H385.5z
			 M385.5,152.8h2.8c2.6,0,4.1-1,4.1-2.9c0-2.1-1.6-2.9-4-2.9h-2.9L385.5,152.8L385.5,152.8z"/>
	</g>
	<g>
		<g>
			<g>
				<path class="st1" d="M8.3,23.6c-4.6,0-8.3,3.7-8.3,8.3v22.5l14.7,17.3v25.7c0,3.5-2.8,6.3-6.3,6.3s-6.3-2.8-6.3-6.3V76.8h-2
					v20.6c0,4.6,3.7,8.3,8.3,8.3s8.3-3.7,8.3-8.3V71L2,53.7V32c0-3.5,2.8-6.3,6.3-6.3s6.3,2.8,6.3,6.3v13.6h2V32
					C16.6,27.4,12.9,23.6,8.3,23.6z"/>
				<rect x="58.6" y="23.7" class="st1" width="2" height="82"/>
				<path class="st1" d="M129.7,25.6c-2-1.3-4.3-1.9-6.7-1.9h-5.7v3.6c-0.6-0.7-1.3-1.2-2-1.7c-2-1.3-4.3-1.9-6.7-1.9h-5.7v82.1h2
					V25.7h4.3c1.1,0,2.2,0.2,3.2,0.7c2,0.9,4.9,2.7,4.9,5.9v73.5h2V25.7h4.3c1.1,0,2.2,0.2,3.2,0.7c2,0.9,4.9,2.7,4.9,5.9v73.5h2
					V32.1l0,0C133.7,29,131.7,26.9,129.7,25.6z"/>
				<path class="st1" d="M181.1,23.6h-7.4v102.7h2v-20.8h5.4c5,0,9.1-4.1,9.1-9.1V32.9C190.3,27.7,186.2,23.6,181.1,23.6z
					 M188.3,96.3c0,3.9-3.2,7.1-7.1,7.1h-5.4V25.6h5.4c3.9,0,7.1,3.2,7.1,7.1V96.3z"/>
				<rect x="229.3" y="0.1" class="st1" width="2" height="105.6"/>
				<path class="st1" d="M279.5,23.3c-4.5,0-8.3,3.7-8.3,8.3v65.9c0,4.5,3.7,8.3,8.3,8.3s8.3-3.7,8.3-8.3V31.6
					C287.7,27,284,23.3,279.5,23.3z M285.7,97.5c0,3.4-2.8,6.3-6.3,6.3s-6.3-2.8-6.3-6.3V31.6c0-3.4,2.8-6.3,6.3-6.3
					s6.3,2.8,6.3,6.3V97.5z"/>
				<path class="st1" d="M331.1,7.8v16.1h-4.8v2h4.8v79.8h2V25.9h5.7v-2h-5.7V7.8c0-3.2,2.6-5.8,5.8-5.8h0.9V0h-0.9
					C334.6,0.1,331.1,3.5,331.1,7.8z"/>
				<path class="st1" d="M392.7,23.6v79.1H386c-3.3,0-5.9-2.6-5.9-5.9V23.6h-2v73.2c0,4.4,3.5,7.9,7.9,7.9h6.7v14.7
					c0,3.3-2.6,5.9-5.9,5.9h-7.7v2h7.7c4.4,0,7.9-3.5,7.9-7.9V23.5h-2V23.6z"/>
				<circle class="st1" cx="59.6" cy="12.9" r="4"/>
			</g>
		</g>
	</g>
	<g>
		<path class="st2" d="M405.4,126.2v-20c0-1.9,1.6-3.5,3.5-3.5h20c1.9,0,3.5,1.6,3.5,3.5v20c0,1.9-1.6,3.5-3.5,3.5h-20
			C407,129.7,405.4,128.1,405.4,126.2z"/>
		<path class="st3" d="M437.9,126.2v-20c0-1.9,1.6-3.5,3.5-3.5h20c1.9,0,3.5,1.6,3.5,3.5v20c0,1.9-1.6,3.5-3.5,3.5h-20
			C439.4,129.7,437.9,128.1,437.9,126.2z"/>
		<path class="st4" d="M470.4,126.2v-20c0-1.9,1.6-3.5,3.5-3.5h20c1.9,0,3.5,1.6,3.5,3.5v20c0,1.9-1.6,3.5-3.5,3.5h-20
			C471.9,129.7,470.4,128.1,470.4,126.2z"/>
		<path class="st2" d="M437.9,158.7v-20c0-1.9,1.6-3.5,3.5-3.5h20c1.9,0,3.5,1.6,3.5,3.5v20c0,1.9-1.6,3.5-3.5,3.5h-20
			C439.4,162.1,437.9,160.6,437.9,158.7z"/>
		<path class="st3" d="M470.4,158.7v-20c0-1.9,1.6-3.5,3.5-3.5h20c1.9,0,3.5,1.6,3.5,3.5v20c0,1.9-1.6,3.5-3.5,3.5h-20
			C471.9,162.1,470.4,160.6,470.4,158.7z"/>
	</g>
</g>
</svg>
